<?xml version="1.0" encoding="UTF-8" standalone="no"?><!DOCTYPE svg PUBLIC "-//W3C//DTD SVG 1.1//EN" "http://www.w3.org/Graphics/SVG/1.1/DTD/svg11.dtd"><svg width="100%" height="100%" viewBox="0 0 263 156" version="1.1" xmlns="http://www.w3.org/2000/svg" xmlns:xlink="http://www.w3.org/1999/xlink" xml:space="preserve" xmlns:serif="http://www.serif.com/" style="fill-rule:evenodd;clip-rule:evenodd;stroke-linejoin:round;stroke-miterlimit:1.41421;"><g><path d="M261.78,104.437l0.032,-0.217l0.706,-0.108l-0.343,-2.144l0.343,-2.134l-0.706,-0.118l-0.032,-0.216c-0.066,-1.436 -0.191,-2.872 -0.373,-4.298l-0.003,-0.157l0.676,-0.236l-0.711,-2.046l-0.032,-2.163l-0.717,0.01l-0.021,-0.069c-0.331,-1.5 -0.726,-2.981 -1.185,-4.44l-0.004,-0.022l0.622,-0.347l-1.055,-1.892l-0.409,-2.128l-0.698,0.133c-0.591,-1.437 -1.255,-2.849 -1.976,-4.23l-0.006,-0.018l0.552,-0.451l-1.367,-1.68l-0.773,-2.027l-0.665,0.256l-0.048,-0.058c-0.798,-1.244 -1.65,-2.461 -2.557,-3.642l-0.085,-0.142l0.468,-0.539l-1.639,-1.418l-1.112,-1.861l-0.612,0.367l-0.182,-0.155c-0.476,-0.515 -0.96,-1.025 -1.457,-1.521c-0.5,-0.5 -1.008,-0.984 -1.523,-1.461l-0.154,-0.178l0.365,-0.611l-1.859,-1.114l-1.42,-1.638l-0.539,0.466l-0.138,-0.083c-1.183,-0.908 -2.401,-1.762 -3.647,-2.562l-0.054,-0.044l0.256,-0.667l-2.028,-0.774l-1.68,-1.365l-0.451,0.554l-0.017,-0.009c-1.382,-0.719 -2.793,-1.382 -4.232,-1.976l0.136,-0.696l-2.128,-0.413l-1.895,-1.054l-0.348,0.625l-0.018,-0.005c-1.459,-0.458 -2.94,-0.854 -4.439,-1.184l-0.069,-0.024l0.009,-0.714l-2.167,-0.033l-2.048,-0.71l-0.233,0.675l-0.158,-0.002c-1.419,-0.182 -2.85,-0.306 -4.294,-0.373l-0.215,-0.035l-0.114,-0.703l-2.141,0.342l-2.14,-0.342l-0.111,0.703l-0.218,0.035c-1.442,0.067 -2.873,0.191 -4.29,0.373l-0.163,0.002l-0.234,-0.675l-2.047,0.71l-2.167,0.033l0.009,0.714l-0.069,0.024c-0.74,0.163 -3.34,0.991 -4.07,1.184l-0.736,-0.62l-1.894,1.054l-2.128,0.413l0,0.696c-0.904,0.408 -3.21,1.516 -4.093,1.976l-0.02,0.009l-0.449,-0.554l-1.683,1.365l-2.025,0.774l0.254,0.667l-0.061,0.051c-1.243,0.796 -2.456,1.647 -3.635,2.551l-0.143,0.087l-0.54,-0.466l-1.419,1.638l-1.86,1.113l0.367,0.612l-0.155,0.18c-0.516,0.477 -1.024,0.959 -1.524,1.459c-0.497,0.496 -0.979,1.006 -1.456,1.519l-0.179,0.157l-0.614,-0.367l-1.113,1.859l-1.637,1.42l0.467,0.539l-0.086,0.142c-0.905,1.181 -1.757,2.396 -2.555,3.64l-0.05,0.06l-0.666,-0.256l-0.773,2.027l-1.367,1.68l0.554,0.451l-0.007,0.019c-0.722,1.381 -1.385,2.792 -1.977,4.231l-0.698,-0.135l-0.409,2.128l-1.055,1.892l0.624,0.347l-0.006,0.024c-0.457,1.457 -0.854,2.941 -1.185,4.438l-0.022,0.069l-0.715,-0.01l-0.033,2.163l-0.711,2.046l0.676,0.236l-0.002,0.168c-0.182,1.415 -0.307,2.851 -0.372,4.287l-0.034,0.216l-0.705,0.118l0.342,2.134l-0.342,2.144l0.705,0.108l0.034,0.217c0.065,1.445 0.19,2.881 0.372,4.297l0.002,0.157l-0.676,0.237l0.711,2.045l0.033,2.173l0.715,-0.02l0.022,0.069c0.331,1.505 0.728,2.98 1.185,4.445l0.006,0.02l-0.624,0.344l1.055,1.899l0.409,2.123l0.698,-0.128c0.592,1.436 1.254,2.843 1.975,4.219l0.007,0.03l-0.552,0.442l1.367,1.683l0.773,2.025l0.666,-0.256l0.05,0.07c0.798,1.239 1.65,2.458 2.555,3.628l0.086,0.147l-0.467,0.542l1.637,1.415l1.113,1.859l0.614,-0.364l0.179,0.158c0.477,0.511 0.959,1.022 1.456,1.523c0.5,0.493 1.008,0.984 1.524,1.456l0.155,0.177l-0.367,0.61l1.86,1.121l1.419,1.632l0.54,-0.462l0.139,0.079c1.182,0.904 2.394,1.76 3.639,2.556l0.061,0.05l-0.254,0.669l2.025,0.767l1.683,1.366l0.449,-0.551l0.02,0.011c1.382,0.717 2.79,1.387 4.228,1.976l-0.135,0.698l2.128,0.404l1.894,1.062l0.348,-0.63l0.029,0.011c1.456,0.461 2.932,0.854 4.429,1.18l0.069,0.029l-0.009,0.708l2.167,0.039l2.047,0.708l0.234,-0.679l0.163,0.011c1.417,0.177 2.848,0.305 4.29,0.363l0.218,0.04l0.111,0.698l2.14,-0.335l2.141,0.335l0.114,-0.698l0.215,-0.04c1.444,-0.058 2.875,-0.186 4.294,-0.363l0.158,-0.011l0.233,0.679l2.048,-0.708l2.167,-0.039l-0.009,-0.708l0.063,-0.02c1.502,-0.335 2.984,-0.728 4.445,-1.189l0.018,-0.011l0.348,0.63l1.895,-1.062l2.128,-0.404l-0.136,-0.698c1.439,-0.589 2.85,-1.259 4.232,-1.976l0.017,-0.011l0.451,0.551l1.68,-1.366l2.028,-0.767l-0.256,-0.669l0.058,-0.05c1.246,-0.796 2.461,-1.652 3.643,-2.556l0.138,-0.079l0.539,0.462l1.42,-1.632l1.859,-1.121l-0.365,-0.61l0.154,-0.177c0.515,-0.472 1.023,-0.963 1.523,-1.456c0.497,-0.501 0.981,-1.012 1.457,-1.523l0.182,-0.158l0.612,0.364l1.112,-1.859l1.639,-1.415l-0.468,-0.542l0.085,-0.147c0.907,-1.18 1.759,-2.389 2.557,-3.628l0.048,-0.07l0.665,0.256l0.773,-2.025l1.367,-1.683l-0.552,-0.442l0.006,-0.02c0.721,-1.386 1.385,-2.793 1.976,-4.229l0.698,0.128l0.409,-2.123l1.055,-1.899l-0.622,-0.344l0.004,-0.02c0.459,-1.465 0.854,-2.94 1.185,-4.445l0.021,-0.058l0.717,0.009l0.032,-2.173l0.711,-2.045l-0.676,-0.237l0.003,-0.157c0.182,-1.416 0.307,-2.852 0.373,-4.297Z" style="fill:#3c3c3b;"/><circle cx="209.168" cy="101.968" r="45.408" style="fill:#3c3c3b;"/><circle cx="209.168" cy="101.968" r="43" style="fill:#fff;"/><circle cx="209.118" cy="101.365" r="11" style="fill:none;stroke:#3c3c3b;stroke-width:3px;"/></g><g><path d="M105.963,104.21l0.031,-0.216l0.706,-0.108l-0.342,-2.144l0.342,-2.134l-0.706,-0.118l-0.031,-0.217c-0.067,-1.435 -0.192,-2.871 -0.373,-4.297l-0.003,-0.157l0.676,-0.236l-0.711,-2.046l-0.033,-2.163l-0.715,0.01l-0.022,-0.069c-0.331,-1.5 -0.726,-2.981 -1.185,-4.44l-0.005,-0.022l0.622,-0.347l-1.055,-1.892l-0.408,-2.128l-0.698,0.133c-0.592,-1.437 -1.255,-2.848 -1.977,-4.23l-0.005,-0.017l0.552,-0.452l-1.367,-1.679l-0.773,-2.027l-0.665,0.256l-0.049,-0.058c-0.797,-1.244 -1.65,-2.461 -2.556,-3.642l-0.085,-0.142l0.467,-0.539l-1.638,-1.418l-1.112,-1.861l-0.613,0.367l-0.181,-0.155c-0.476,-0.516 -0.96,-1.025 -1.457,-1.522c-0.5,-0.499 -1.008,-0.983 -1.524,-1.46l-0.153,-0.178l0.365,-0.611l-1.86,-1.114l-1.419,-1.638l-0.54,0.466l-0.137,-0.083c-1.183,-0.908 -2.402,-1.762 -3.648,-2.561l-0.054,-0.045l0.256,-0.666l-2.027,-0.774l-1.68,-1.366l-0.452,0.553l-0.016,-0.007c-1.382,-0.72 -2.793,-1.383 -4.232,-1.977l0.135,-0.696l-2.128,-0.412l-1.894,-1.054l-0.348,0.624l-0.019,-0.004c-1.458,-0.459 -2.939,-0.855 -4.439,-1.185l-0.069,-0.025l0.01,-0.712l-2.167,-0.033l-2.048,-0.711l-0.234,0.675l-0.157,-0.002c-1.419,-0.181 -2.851,-0.306 -4.295,-0.373l-0.215,-0.034l-0.113,-0.704l-2.142,0.342l-2.14,-0.342l-0.111,0.704l-0.217,0.034c-1.443,0.067 -2.873,0.192 -4.291,0.373l-0.163,0.002l-0.234,-0.675l-2.047,0.711l-2.167,0.033l0.009,0.712l-0.069,0.025c-0.739,0.163 -3.34,0.991 -4.069,1.185l-0.736,-0.62l-1.894,1.054l-2.128,0.412l0,0.696c-0.905,0.409 -3.211,1.516 -4.093,1.977l-0.021,0.007l-0.449,-0.553l-1.683,1.366l-2.025,0.774l0.254,0.666l-0.061,0.05c-1.243,0.797 -2.455,1.648 -3.634,2.552l-0.144,0.087l-0.54,-0.466l-1.419,1.638l-1.859,1.112l0.366,0.613l-0.155,0.18c-0.515,0.477 -1.024,0.959 -1.523,1.458c-0.498,0.497 -0.98,1.006 -1.457,1.52l-0.18,0.157l-0.612,-0.367l-1.114,1.859l-1.637,1.42l0.467,0.539l-0.086,0.142c-0.905,1.181 -1.757,2.396 -2.555,3.64l-0.05,0.06l-0.666,-0.256l-0.773,2.027l-1.367,1.679l0.555,0.452l-0.008,0.019c-0.722,1.381 -1.385,2.791 -1.978,4.23l-0.697,-0.135l-0.409,2.128l-1.055,1.892l0.624,0.347l-0.005,0.024c-0.458,1.457 -0.855,2.94 -1.185,4.438l-0.023,0.069l-0.715,-0.01l-0.032,2.163l-0.711,2.046l0.674,0.236l-0.002,0.167c-0.181,1.416 -0.306,2.852 -0.37,4.287l-0.035,0.217l-0.705,0.118l0.342,2.134l-0.342,2.144l0.705,0.108l0.035,0.216c0.064,1.446 0.189,2.881 0.37,4.297l0.002,0.158l-0.674,0.236l0.711,2.045l0.032,2.173l0.715,-0.019l0.023,0.069c0.33,1.504 0.727,2.979 1.185,4.444l0.005,0.02l-0.624,0.344l1.055,1.899l0.409,2.123l0.697,-0.128c0.593,1.436 1.254,2.842 1.976,4.219l0.008,0.03l-0.553,0.442l1.367,1.683l0.773,2.025l0.666,-0.256l0.05,0.07c0.798,1.239 1.65,2.458 2.555,3.627l0.086,0.148l-0.467,0.542l1.637,1.415l1.114,1.858l0.612,-0.363l0.18,0.158c0.477,0.51 0.959,1.022 1.457,1.523c0.499,0.492 1.008,0.983 1.523,1.456l0.155,0.177l-0.366,0.609l1.859,1.121l1.419,1.633l0.54,-0.463l0.14,0.079c1.182,0.905 2.393,1.76 3.638,2.557l0.061,0.049l-0.254,0.669l2.025,0.767l1.683,1.367l0.449,-0.551l0.021,0.01c1.381,0.718 2.789,1.386 4.227,1.976l-0.134,0.699l2.128,0.403l1.894,1.062l0.348,-0.629l0.028,0.009c1.457,0.463 2.933,0.856 4.429,1.18l0.069,0.03l-0.009,0.708l2.167,0.039l2.047,0.708l0.234,-0.678l0.163,0.01c1.418,0.177 2.848,0.304 4.291,0.363l0.217,0.04l0.111,0.698l2.14,-0.334l2.142,0.334l0.113,-0.698l0.215,-0.04c1.444,-0.059 2.876,-0.186 4.295,-0.363l0.157,-0.01l0.234,0.678l2.048,-0.708l2.167,-0.039l-0.01,-0.708l0.063,-0.02c1.503,-0.334 2.985,-0.727 4.445,-1.19l0.019,-0.009l0.348,0.629l1.894,-1.062l2.128,-0.403l-0.135,-0.699c1.439,-0.59 2.85,-1.258 4.232,-1.976l0.016,-0.01l0.452,0.551l1.68,-1.367l2.027,-0.767l-0.256,-0.669l0.058,-0.049c1.246,-0.797 2.462,-1.652 3.644,-2.557l0.137,-0.079l0.54,0.463l1.419,-1.633l1.86,-1.121l-0.365,-0.609l0.153,-0.177c0.516,-0.473 1.024,-0.964 1.524,-1.456c0.497,-0.501 0.981,-1.013 1.457,-1.523l0.181,-0.158l0.613,0.363l1.112,-1.858l1.638,-1.415l-0.467,-0.542l0.085,-0.148c0.906,-1.18 1.759,-2.388 2.556,-3.627l0.049,-0.07l0.665,0.256l0.773,-2.025l1.367,-1.683l-0.552,-0.442l0.005,-0.02c0.722,-1.387 1.385,-2.793 1.977,-4.229l0.698,0.128l0.408,-2.123l1.055,-1.899l-0.622,-0.344l0.005,-0.02c0.459,-1.465 0.854,-2.94 1.185,-4.444l0.022,-0.059l0.715,0.009l0.033,-2.173l0.711,-2.045l-0.676,-0.236l0.003,-0.158c0.181,-1.416 0.306,-2.851 0.373,-4.297Z" style="fill:#3c3c3b;"/><circle cx="53.35" cy="101.742" r="46.477" style="fill:#3c3c3b;"/><circle cx="53.35" cy="101.742" r="43" style="fill:#fff;"/><circle cx="53.504" cy="101.607" r="11" style="fill:none;stroke:#3c3c3b;stroke-width:3px;"/></g><path d="M189.157,60.635c2.695,6.78 6.514,16.486 7.766,19.271c1.96,4.362 5.658,11.643 7.996,16.182c-1.584,1.248 -2.604,3.18 -2.604,5.351c0,3.764 3.051,6.815 6.815,6.815c3.763,0 6.814,-3.051 6.814,-6.815c0,-3.763 -3.051,-6.814 -6.814,-6.814c-0.7,0 -1.373,0.105 -2.006,0.301c-2.084,-4.758 -5.487,-12.604 -7.112,-16.725c-1.021,-2.588 -4.453,-12.238 -6.65,-19.181c0.051,0.162 -4.157,1.737 -4.205,1.615Zm-6.992,-20.317l-55.827,61.131l-0.053,-0.068c-0.09,-0.113 -0.203,-0.209 -0.342,-0.274c-0.162,-0.074 -0.334,-0.095 -0.498,-0.076l-1.271,-0.584c-0.092,-0.139 -0.221,-0.256 -0.383,-0.33c-0.205,-0.094 -0.428,-0.105 -0.631,-0.051l-1.402,-0.369l-0.206,-0.158c-0.123,-0.078 -0.263,-0.129 -0.418,-0.142c-0.177,-0.014 -0.345,0.023 -0.494,0.097l-1.394,-0.113l-0.178,-0.102l-0.082,-0.033l-0.041,-0.012c-0.088,-0.027 -0.18,-0.047 -0.277,-0.047c-0.178,0 -0.342,0.053 -0.485,0.139l-1.398,0l-0.018,-0.01l-0.086,-0.047l-0.082,-0.029l-0.054,-0.02l-0.08,-0.263c0.83,-0.141 1.681,-0.223 2.56,-0.225l0.012,-0.008c0.203,-0.202 0.185,-1.326 -0.047,-1.623c-0.059,-0.074 -0.275,-0.125 -0.572,-0.164c-0.741,-0.095 -1.981,-0.109 -2.506,-0.169l-0.117,-0.018l-0.055,-0.178c0.564,-0.377 -0.19,-2.978 -0.861,-2.846l-18.965,-62.521c0.105,0.002 0.215,0.004 0.328,0.004c1.851,0 80.352,0 83.106,0l2.817,9.109Zm-35.285,68.555c0.304,-0.006 0.609,0.105 0.841,0.338c0.223,0.222 0.334,0.513 0.338,0.807l-2.597,2.484c-0.188,-0.471 -0.549,-0.832 -1.096,-1l2.514,-2.629Zm-6.914,9.236c-0.292,-0.002 -0.584,-0.115 -0.807,-0.337c-0.231,-0.231 -0.344,-0.538 -0.336,-0.841l1.676,-1.605l0.521,-0.02c0,0 0.438,0.309 1.102,0.551l-2.156,2.252Zm-23.677,8.424l0.142,0.01c0.133,0.023 0.25,0.078 0.352,0.15l-0.111,-0.006c-0.112,-0.078 -0.243,-0.131 -0.383,-0.154Zm-2.682,-0.025c-0.109,-0.08 -0.236,-0.133 -0.377,-0.161c0.207,-0.357 0.641,-0.529 1.041,-0.382c0.279,0.101 0.473,0.332 0.541,0.599l-1.205,-0.056Zm-59.699,-74.393c7.683,0 16.3,4.999 22.564,8.52c-5.942,11.187 -14.115,25.845 -17.754,32.701l0,0.002c-0.326,0.611 -1.302,1.326 -2.474,2.125c-0.904,-0.445 -1.92,-0.703 -2.998,-0.703c-3.764,0 -6.815,3.05 -6.815,6.814c0,3.162 2.157,5.813 5.077,6.582l-0.409,0.557c-0.429,0.043 -0.84,0.259 -1.109,0.638c-0.494,0.698 -0.328,1.663 0.369,2.157l4.363,2.906c0.018,0.25 0.077,0.486 0.176,0.703l-0.756,1.256l-0.111,0.058l-1.84,0.756l-0.207,0.125c-0.334,-0.017 -0.668,0.141 -0.853,0.448c-0.092,0.152 -0.133,0.32 -0.135,0.486l-0.725,1.193c-0.148,0.079 -0.279,0.192 -0.371,0.344c-0.141,0.231 -0.168,0.498 -0.101,0.739c-0.018,0.14 -0.002,0.284 0.054,0.423l0.692,1.668c-0.03,0.432 0.24,0.84 0.671,0.969c0.17,0.049 0.344,0.047 0.504,0.004l1.34,0.396c0.112,0.123 0.256,0.221 0.426,0.272c0.199,0.058 0.4,0.047 0.582,-0.018l0.111,0.018l1.141,0.07c0.145,0.109 0.318,0.178 0.512,0.19c0.177,0.011 0.345,-0.032 0.492,-0.108l1.394,0.086c0.137,0.096 0.299,0.158 0.477,0.168c0.15,0.01 0.293,-0.02 0.422,-0.074l1.25,0.076c0.125,0.074 0.266,0.123 0.42,0.133c0.178,0.011 0.346,-0.031 0.492,-0.108l1.396,0.086c0.137,0.096 0.297,0.158 0.475,0.168c0.166,0.01 0.322,-0.025 0.463,-0.094l1.311,0.083c0.128,0.08 0.275,0.134 0.437,0.144c0.178,0.01 0.346,-0.031 0.492,-0.109l1.397,0.088c0.136,0.094 0.297,0.156 0.476,0.167c0.199,0.012 0.389,-0.04 0.547,-0.138l0.014,0.004l1.234,0.076c0.143,0.11 0.319,0.178 0.51,0.189c0.178,0.012 0.346,-0.031 0.492,-0.107l1.397,0.086c0.136,0.094 0.296,0.156 0.474,0.168c0.186,0.012 0.362,-0.033 0.512,-0.117l1.133,0.07c0.152,0.139 0.349,0.23 0.57,0.244c0.178,0.012 0.346,-0.031 0.492,-0.107l1.395,0.086c0.137,0.094 0.299,0.156 0.476,0.168c0.168,0.009 0.327,-0.028 0.469,-0.098l1.293,0.082c0.133,0.084 0.285,0.143 0.453,0.152c0.178,0.012 0.346,-0.031 0.492,-0.107l1.395,0.086c0.137,0.096 0.299,0.158 0.476,0.168c0.178,0.012 0.344,-0.03 0.491,-0.106l0.959,0.059c0.156,0.154 0.363,0.258 0.599,0.271c0.178,0.012 0.346,-0.031 0.494,-0.107l1.395,0.086c0.137,0.096 0.297,0.158 0.475,0.168c0.197,0.014 0.382,-0.037 0.541,-0.131l1.043,0.066c0.144,0.114 0.324,0.188 0.523,0.2c0.178,0.009 0.346,-0.032 0.492,-0.109l6.36,0.114c-7.856,11.091 -26.477,25.227 -41.072,25.227c-23.893,0 -49.597,-26.349 -49.597,-50.244c0,-23.893 26.262,-49.504 50.155,-49.504Zm0,56.24l0.185,-0.023l0.063,0.058c0.045,0.161 0.127,0.311 0.258,0.434c0.133,0.127 0.295,0.205 0.463,0.238l0.879,0.928c0.031,0.141 0.091,0.275 0.189,0.393c0.113,0.139 0.26,0.23 0.416,0.285l0.895,1.074c0.025,0.164 0.089,0.324 0.203,0.463c0.078,0.092 0.172,0.164 0.271,0.221c-0.287,-0.151 -0.607,-0.243 -0.951,-0.243c-0.117,0 -0.229,0.016 -0.338,0.034l-3.459,-2.604l0.926,-1.258Zm41.752,-9.826c-0.139,-0.09 -0.301,-0.148 -0.479,-0.156c-0.187,-0.006 -0.361,0.043 -0.511,0.131l-1.317,-0.049c-0.138,-0.092 -0.303,-0.15 -0.48,-0.156c-0.178,-0.008 -0.346,0.039 -0.49,0.119l-1.399,-0.053c-0.139,-0.092 -0.301,-0.15 -0.478,-0.156c-0.188,-0.008 -0.362,0.043 -0.512,0.131l-1.387,-0.053c-0.139,-0.092 -0.301,-0.15 -0.478,-0.156c-0.178,-0.008 -0.346,0.039 -0.491,0.119l-1.398,-0.053c-0.139,-0.09 -0.301,-0.148 -0.479,-0.156c-0.187,-0.006 -0.361,0.043 -0.511,0.131l-1.407,-0.053l-0.023,0.002c-0.139,-0.094 -0.303,-0.152 -0.484,-0.16c-0.178,-0.006 -0.344,0.039 -0.489,0.121l-1.398,-0.053c-0.139,-0.092 -0.301,-0.15 -0.479,-0.156c-0.187,-0.008 -0.361,0.041 -0.511,0.129l-1.28,-0.047c-0.154,-0.131 -0.349,-0.215 -0.568,-0.223c-0.178,-0.008 -0.344,0.04 -0.49,0.119l-1.397,-0.052c-0.138,-0.09 -0.3,-0.149 -0.478,-0.156c-0.188,-0.006 -0.362,0.042 -0.512,0.13l-1.318,-0.049c-0.139,-0.091 -0.301,-0.15 -0.479,-0.158c-0.179,-0.006 -0.346,0.041 -0.49,0.121l-1.398,-0.052c-0.139,-0.092 -0.301,-0.151 -0.479,-0.157c-0.187,-0.008 -0.361,0.044 -0.512,0.131l-1.211,-0.047c-0.14,-0.095 -0.308,-0.156 -0.49,-0.162c-0.178,-0.007 -0.346,0.039 -0.49,0.119l-1.397,-0.052c-0.138,-0.092 -0.302,-0.151 -0.48,-0.157c-0.188,-0.007 -0.361,0.043 -0.512,0.131l-1.258,-0.047c-0.14,-0.095 -0.306,-0.156 -0.49,-0.164c-0.178,-0.006 -0.346,0.039 -0.49,0.119l-1.397,-0.05c-0.138,-0.092 -0.302,-0.151 -0.48,-0.159c-0.186,-0.005 -0.361,0.043 -0.51,0.132l-1.164,-0.044c-0.142,-0.099 -0.314,-0.162 -0.5,-0.168c-0.178,-0.007 -0.344,0.039 -0.49,0.12l-0.533,-0.02l19.306,-35.328c11.31,7.187 21.014,22.607 21.991,36.728l-4.803,-0.031Zm-36.203,0.25l0.181,0.006c0.139,0.092 0.301,0.15 0.481,0.158c0.168,0.006 0.328,-0.037 0.469,-0.111l1.246,0.049c0.134,0.082 0.289,0.137 0.459,0.142c0.177,0.008 0.343,-0.039 0.49,-0.119l1.396,0.053c0.139,0.092 0.303,0.15 0.481,0.156c0.174,0.006 0.336,-0.037 0.478,-0.113l1.323,0.049c0.134,0.084 0.289,0.138 0.459,0.144c0.177,0.008 0.343,-0.039 0.49,-0.119l1.396,0.053c0.139,0.09 0.301,0.148 0.481,0.156c0.172,0.006 0.334,-0.039 0.476,-0.115l1.276,0.049c0.135,0.084 0.289,0.138 0.459,0.144c0.179,0.006 0.345,-0.039 0.49,-0.121l1.398,0.053c0.139,0.092 0.301,0.15 0.479,0.158c0.178,0.006 0.346,-0.041 0.49,-0.121l1.36,0.051c0.134,0.084 0.289,0.138 0.459,0.144c0.177,0.008 0.345,-0.039 0.49,-0.119l1.396,0.053c0.141,0.09 0.303,0.148 0.481,0.156c0.136,0.006 0.265,-0.02 0.384,-0.068l0.067,0.009l1.447,0.055c0.135,0.082 0.289,0.137 0.459,0.145c0.18,0.006 0.346,-0.041 0.49,-0.121l1.397,0.052c0.14,0.092 0.303,0.151 0.48,0.157c0.18,0.007 0.348,-0.039 0.494,-0.122l0.016,0.002l1.455,0.055c0.135,0.084 0.291,0.139 0.461,0.145c0.178,0.007 0.344,-0.039 0.49,-0.119l1.397,0.052c0.138,0.092 0.301,0.149 0.478,0.157c0.178,0.005 0.346,-0.04 0.491,-0.12l1.429,0.053c0.135,0.084 0.289,0.139 0.459,0.145c0.178,0.005 0.344,-0.039 0.49,-0.12l1.397,0.053c0.139,0.09 0.301,0.149 0.478,0.156c0.18,0.006 0.346,-0.041 0.491,-0.121l1.359,0.053c0.135,0.082 0.291,0.137 0.459,0.143c0.18,0.008 0.346,-0.039 0.49,-0.119l4.944,0.035c0.015,0.467 0.034,1.678 0.033,1.815c-0.025,2.501 -0.272,4.949 -0.703,7.331l-39.869,-6.904c0.035,-0.275 0.056,-0.555 0.056,-0.84c0,-0.996 -0.219,-1.941 -0.603,-2.795Zm-0.608,15.162l-0.023,0.063l-0.012,-0.102l0.035,0.039Zm29.313,10.977c-0.137,-0.094 -0.299,-0.156 -0.477,-0.168c-0.156,-0.01 -0.302,0.023 -0.437,0.082l-1.237,-0.076c-0.127,-0.078 -0.271,-0.131 -0.431,-0.141c-0.178,-0.01 -0.346,0.032 -0.492,0.109l-1.397,-0.087c-0.137,-0.094 -0.297,-0.157 -0.475,-0.168c-0.111,-0.006 -0.216,0.009 -0.318,0.039l-0.158,-0.026l-1.094,-0.068c-0.138,-0.096 -0.301,-0.158 -0.478,-0.17c-0.178,-0.01 -0.346,0.031 -0.494,0.109l-1.395,-0.088c-0.137,-0.093 -0.297,-0.156 -0.477,-0.168c-0.185,-0.011 -0.363,0.036 -0.515,0.12l-1.199,-0.074c-0.141,-0.102 -0.311,-0.171 -0.498,-0.182c-0.178,-0.01 -0.346,0.031 -0.493,0.109l-1.375,-0.086l-0.06,-0.025c-0.129,-0.08 -0.276,-0.135 -0.436,-0.145c-0.125,-0.008 -0.242,0.01 -0.353,0.047l-1.403,-0.086c-0.134,-0.088 -0.289,-0.146 -0.459,-0.158c-0.177,-0.01 -0.345,0.031 -0.492,0.109l-1.396,-0.087c-0.137,-0.094 -0.297,-0.157 -0.475,-0.169c-0.164,-0.009 -0.318,0.028 -0.457,0.092l-1.297,-0.08l-0.111,0.004c-0.129,-0.082 -0.279,-0.137 -0.442,-0.146c-0.177,-0.012 -0.345,0.031 -0.492,0.107l-1.396,-0.086c-0.137,-0.093 -0.297,-0.156 -0.475,-0.168c-0.195,-0.012 -0.377,0.035 -0.533,0.127l-1.172,-0.072c-0.142,-0.108 -0.314,-0.174 -0.506,-0.188c-0.177,-0.009 -0.343,0.032 -0.492,0.11l-1.396,-0.088c-0.135,-0.094 -0.297,-0.156 -0.475,-0.166c-0.201,-0.014 -0.389,0.039 -0.547,0.135l-1.014,-0.063c-0.146,-0.119 -0.33,-0.195 -0.531,-0.207c-0.178,-0.012 -0.346,0.029 -0.494,0.108l-1.352,-0.084l-0.056,-0.012c-0.135,-0.09 -0.291,-0.149 -0.463,-0.158c-0.164,-0.012 -0.316,0.025 -0.455,0.089l-1.106,-0.068c-0.101,-0.094 -0.222,-0.168 -0.365,-0.209l-0.008,-0.002c0.688,-0.336 1.166,-1.037 1.166,-1.853c0,-0.651 -0.304,-1.223 -0.773,-1.604l0.891,-1.082l1.23,-0.221c0.154,0.061 0.326,0.084 0.502,0.051c0.238,-0.041 0.437,-0.174 0.576,-0.351l1.014,-0.522c0.486,0.18 1.029,-0.068 1.211,-0.555c0.062,-0.168 0.07,-0.339 0.039,-0.503l0.488,-1.311c0.131,-0.101 0.236,-0.238 0.299,-0.406c0.182,-0.487 -0.066,-1.03 -0.555,-1.211l-0.064,-0.018l-0.916,-1.283c-0.004,-0.205 -0.072,-0.408 -0.213,-0.576c-0.113,-0.139 -0.26,-0.231 -0.416,-0.285l-0.895,-1.075c-0.025,-0.164 -0.089,-0.324 -0.203,-0.46c-0.131,-0.158 -0.301,-0.26 -0.484,-0.307l-0.951,-1.006l-0.012,-0.037c0.478,-0.205 0.924,-0.471 1.338,-0.775l0.002,0.001l0.084,-0.066c0.47,-0.359 0.892,-0.775 1.256,-1.244l0.105,-0.137l-0.002,0c0.266,-0.361 0.496,-0.748 0.688,-1.158c0.629,0.088 1.25,0.178 1.881,0.297l0.001,0l38.192,6.435c-1.129,4.964 -1.306,9.68 -3.978,13.836l-5.956,-0.015l-1.396,-0.086Zm19.297,-11.481l1.406,0.264l0.031,0.234c0,0.524 -0.412,0.95 -0.93,0.975c0.026,0.283 0.063,0.564 0.11,0.844c0.508,-0.111 1.015,0.193 1.152,0.699c0.135,0.508 -0.154,1.027 -0.65,1.184c0.097,0.267 0.209,0.529 0.328,0.785c0.32,-0.166 0.691,-0.133 0.977,0.05c-0.5,0.44 -0.833,0.725 -0.833,0.725l-0.187,0.172c-0.906,-1.617 -1.428,-3.48 -1.428,-5.463c0,-0.158 0.018,-0.312 0.024,-0.469Zm1.447,-5.064l0.135,0.121c0,0 0.386,0.326 0.961,0.814c-0.295,0.262 -0.731,0.331 -1.096,0.141c-0.119,0.256 -0.231,0.518 -0.328,0.785c0.496,0.156 0.785,0.676 0.65,1.182c-0.045,0.168 -0.133,0.31 -0.246,0.426l-1.303,-0.25c0.241,-1.149 0.662,-2.229 1.227,-3.219Zm4.416,-2.738c-0.34,0.015 -0.676,-0.143 -0.869,-0.444c-0.233,0.164 -0.459,0.336 -0.678,0.518c0.324,0.357 0.336,0.892 0.039,1.263c-0.678,-0.419 -1.137,-0.708 -1.137,-0.708l-0.138,-0.083c0.699,-0.736 1.498,-1.373 2.373,-1.898l0.41,1.352Zm7.453,-4.399l-0.088,-0.031l0.088,0.031Zm-0.142,-0.06l0.007,0.004l-0.015,-0.008l0.008,0.004Zm-0.094,-0.059l0.08,0.053l-0.09,-0.059l0.01,0.006Zm2.306,0.619l0.125,0.074l-0.125,-0.074Zm-0.132,-0.117l0.119,0.107l-0.119,-0.107Zm0.337,0.228l-0.021,-0.009l0.053,0.017l-0.032,-0.008Zm0.026,3.172l-0.018,-0.045c0.174,-0.664 0.291,-1.099 0.291,-1.099l0.032,-0.139c0.201,0.094 0.406,0.184 0.601,0.291l-0.906,0.992Zm2,-2.226l-0.037,-0.028l0.064,0.036l-0.004,0.002l-0.023,-0.01Zm-0.285,-0.278l0.072,0.092l0.162,0.149c-0.101,-0.069 -0.182,-0.155 -0.244,-0.252l0.01,0.011Zm4.89,9.288l-1.494,-0.055c-0.072,-0.096 -0.129,-0.207 -0.162,-0.332c-0.137,-0.506 0.154,-1.027 0.65,-1.182c-0.097,-0.267 -0.209,-0.529 -0.328,-0.785c-0.461,0.238 -1.033,0.076 -1.295,-0.379c-0.148,-0.258 -0.162,-0.552 -0.07,-0.812l0.785,-0.889c0.936,1.299 1.602,2.803 1.914,4.434Zm0.059,-4.387l-0.053,-0.147l0.053,0.147Zm-0.065,-0.203l-0.011,-0.076l0.011,0.076Zm1.663,4.603l0.017,0.047l-0.017,-0.047Zm-0.043,-0.176l0.017,0.09l-0.013,-0.052l-0.004,-0.038Zm-1.442,-4.041l0.063,0.069l-0.063,-0.069Zm-0.105,-0.169l0.082,0.136l-0.057,-0.076l-0.025,-0.06Zm1.08,2.287l-0.049,-0.077l0.049,0.077Zm-0.135,-0.305l-0.019,-0.107l0.019,0.107Zm0.061,0.178l-0.036,-0.072l-0.013,-0.053l0.049,0.125Zm0.533,1.898l0,0.043l0,-0.043Zm-17.676,7.984c0.129,0.315 0.074,0.688 -0.164,0.954c0.092,0.072 0.184,0.144 0.277,0.213c0.262,-0.401 0.793,-0.534 1.213,-0.292c0.42,0.243 0.571,0.77 0.354,1.198c0.105,0.047 0.213,0.09 0.322,0.133c0.148,-0.456 0.627,-0.723 1.096,-0.596c0.468,0.125 0.75,0.596 0.65,1.065c0.115,0.017 0.231,0.031 0.348,0.044c0.025,-0.478 0.418,-0.859 0.904,-0.859c0.355,0 0.66,0.205 0.809,0.504l0.054,0.14l0.041,0.215l0.041,-0.006c0.041,0.11 0.084,0.217 0.123,0.323c-0.345,0.043 -0.695,0.072 -1.052,0.072c-2.34,0 -4.459,-0.933 -6.014,-2.443c0.316,-0.211 0.652,-0.436 0.998,-0.665Zm-1.945,-8.738c-0.201,0.047 -0.418,0.03 -0.616,-0.07c-0.046,0.105 -0.091,0.213 -0.132,0.32c0.455,0.151 0.72,0.629 0.595,1.098l-0.101,0.228l-1.223,-0.236c0.154,-0.703 0.397,-1.371 0.711,-1.998c0.246,0.211 0.504,0.434 0.766,0.658Zm2.226,-3.22l-0.168,-0.186c-0.093,0.069 -0.185,0.141 -0.277,0.213c0.148,0.166 0.217,0.371 0.225,0.58c-0.303,-0.186 -0.602,-0.369 -0.885,-0.545c0.285,-0.262 0.584,-0.508 0.902,-0.731l0.203,0.669Zm5.684,-1.731l-0.061,-0.008c-0.023,0.418 -0.326,0.764 -0.726,0.842l-0.399,-1.314l0.237,-0.012c0.381,0 0.754,0.033 1.121,0.082c-0.057,0.135 -0.114,0.271 -0.172,0.41Zm6.125,5.875c0.066,-0.307 0.287,-0.57 0.603,-0.674c-0.041,-0.107 -0.086,-0.215 -0.132,-0.322c-0.381,0.193 -0.842,0.094 -1.108,-0.229l0.91,-1.033c0.438,0.707 0.776,1.481 0.994,2.305l-1.267,-0.047Zm-3.379,8.672c0.414,-0.215 0.922,-0.08 1.176,0.309c0.093,-0.069 0.185,-0.141 0.277,-0.213c-0.32,-0.358 -0.31,-0.904 0.031,-1.246c0.344,-0.344 0.891,-0.352 1.248,-0.033c0.073,-0.091 0.143,-0.182 0.211,-0.276c-0.4,-0.262 -0.533,-0.793 -0.291,-1.213c0.242,-0.422 0.77,-0.57 1.198,-0.353c0.046,-0.108 0.091,-0.215 0.132,-0.323c-0.455,-0.15 -0.72,-0.629 -0.595,-1.097l0.006,-0.014l1.343,-0.049c-0.562,2.516 -2.217,4.617 -4.445,5.777c-0.092,-0.4 -0.191,-0.83 -0.291,-1.269Zm-0.889,-4.301l3.026,-0.111c-0.432,1.308 -1.289,2.426 -2.41,3.181c-0.293,-1.322 -0.547,-2.543 -0.616,-3.07Zm-4.297,1.184c0.135,0.047 0.274,0.078 0.414,0.109c0.245,0.467 0.711,1.588 1.202,2.817l-0.141,0.008c-1.482,0 -2.842,-0.526 -3.904,-1.397c1.039,-0.682 1.988,-1.289 2.429,-1.537Zm-3.041,-2.528c-0.373,0.356 -0.837,0.784 -1.332,1.233c-0.162,-0.488 -0.261,-1.004 -0.295,-1.537l1.627,0.304Zm-0.074,-1.873l-1.396,-0.269c0.062,-0.262 0.142,-0.518 0.238,-0.766c0.426,0.375 0.826,0.731 1.158,1.035Zm10.182,-1.404l0.094,0.201l-0.262,-0.01l0.168,-0.191Zm-14.221,2.527l0.002,-0.023l1.262,0.238c-0.076,0.406 -0.42,0.715 -0.844,0.739c0.014,0.115 0.027,0.23 0.045,0.345c0.471,-0.099 0.939,0.182 1.066,0.651c0.125,0.468 -0.14,0.947 -0.595,1.097c0.041,0.108 0.086,0.215 0.132,0.323l0.252,-0.081c-0.162,0.143 -0.32,0.284 -0.474,0.419c-0.537,-1.125 -0.846,-2.379 -0.846,-3.708Zm13.193,10.241c0,-0.129 -0.013,-0.258 -0.05,-0.385l-0.032,-0.127l0.02,-0.008l-0.051,-0.131l-0.053,-0.217c-0.037,-0.371 0.137,-0.748 0.483,-0.947c0.453,-0.262 1.029,-0.117 1.308,0.319c0.233,-0.165 0.459,-0.336 0.678,-0.518c-0.349,-0.383 -0.342,-0.977 0.03,-1.346c0.369,-0.371 0.962,-0.379 1.345,-0.029c0.182,-0.219 0.354,-0.445 0.518,-0.678c-0.436,-0.279 -0.58,-0.855 -0.319,-1.308c0.262,-0.456 0.834,-0.618 1.295,-0.379c0.119,-0.256 0.231,-0.518 0.328,-0.785c-0.496,-0.157 -0.787,-0.676 -0.65,-1.184c0.096,-0.359 0.385,-0.615 0.725,-0.693l0.361,-0.014l0.064,0.008l0.002,-0.01l0.547,-0.022c-0.621,3.792 -3.136,6.946 -6.549,8.454Zm-4.515,-21.495c0.724,0 1.43,0.075 2.115,0.206l-0.055,0.121c0,0 -0.109,0.271 -0.287,0.707c-0.013,-0.108 -0.013,-0.219 0.012,-0.33c-0.279,-0.047 -0.559,-0.084 -0.844,-0.11c-0.025,0.518 -0.451,0.93 -0.974,0.93c-0.248,0 -0.473,-0.094 -0.645,-0.248l-0.371,-1.223c0.346,-0.031 0.695,-0.053 1.049,-0.053Zm-0.156,-1.623l-0.024,-0.003l0.024,0.003Zm-0.147,-0.043l0.016,0.007l-0.051,-0.018l0.035,0.011Zm-7.887,20.541l0.237,-0.14c0,0 0.386,-0.262 0.972,-0.656l0.067,0.056c0.371,0.369 0.379,0.963 0.029,1.346c0.219,0.182 0.445,0.353 0.678,0.518c0.279,-0.436 0.855,-0.581 1.308,-0.319c0.455,0.264 0.618,0.834 0.377,1.295c0.258,0.119 0.52,0.231 0.787,0.328c0.155,-0.496 0.676,-0.787 1.182,-0.65c0.508,0.135 0.813,0.644 0.701,1.152c0.278,0.047 0.559,0.084 0.844,0.109c0.023,-0.517 0.451,-0.929 0.975,-0.929c0.523,0 0.949,0.412 0.974,0.929c0.282,-0.025 0.561,-0.062 0.836,-0.109l0.037,0.1c0.039,0.133 0.102,0.25 0.174,0.357c-0.646,0.117 -1.308,0.188 -1.988,0.188c-3.231,0 -6.141,-1.381 -8.19,-3.575Zm-4.105,-20.974c0.139,0.092 0.303,0.15 0.48,0.156c0.178,0.008 0.344,-0.039 0.491,-0.119l1.427,0.053l0.121,0.066c-1.056,1.068 -2.195,2.51 -3.285,4.465c-0.177,0.096 -0.302,0.277 -0.302,0.494c0,0.317 0.255,0.572 0.572,0.572c0.316,0 0.572,-0.255 0.572,-0.572l-0.01,-0.045c1.262,-1.971 2.928,-3.611 4.897,-4.799c0.082,0.03 0.17,0.049 0.262,0.053c0.099,0.004 0.195,-0.012 0.285,-0.037l0.543,1.787l-0.174,0.137c-0.404,0.232 -0.916,0.101 -1.162,-0.289c-0.184,0.123 -0.366,0.25 -0.543,0.381c0.283,0.365 0.23,0.89 -0.127,1.191c-0.356,0.299 -0.881,0.26 -1.192,-0.08c-0.16,0.152 -0.318,0.309 -0.47,0.469c0.34,0.312 0.381,0.836 0.08,1.193c-0.299,0.357 -0.824,0.408 -1.19,0.125c-0.132,0.178 -0.259,0.36 -0.382,0.545c0.392,0.246 0.523,0.758 0.291,1.162c-0.235,0.404 -0.745,0.547 -1.155,0.33c-0.099,0.198 -0.193,0.399 -0.281,0.602c0.43,0.173 0.648,0.656 0.49,1.096c-0.16,0.439 -0.64,0.667 -1.082,0.523c-0.062,0.213 -0.119,0.426 -0.172,0.642c0.315,0.067 0.551,0.297 0.643,0.582l-1.367,-0.261c0.523,-2.982 0.791,-6.032 0.791,-9.121c0,-0.448 -0.006,-0.893 -0.018,-1.338l0.967,0.037Zm4.828,25.844c-0.141,-0.088 -0.305,-0.145 -0.482,-0.149c-0.172,-0.004 -0.33,0.041 -0.469,0.117l-1.162,-0.072c-0.141,-0.105 -0.315,-0.174 -0.506,-0.187c-0.178,-0.01 -0.346,0.031 -0.492,0.109l-1.395,-0.086c-0.137,-0.096 -0.299,-0.158 -0.476,-0.17c-0.186,-0.012 -0.362,0.035 -0.514,0.119l-1.313,-0.082c-0.132,-0.086 -0.285,-0.144 -0.455,-0.154c-0.177,-0.012 -0.345,0.031 -0.492,0.107l-1.396,-0.085c-0.137,-0.096 -0.297,-0.159 -0.475,-0.169c-0.187,-0.011 -0.363,0.034 -0.514,0.118l-1.279,-0.078l-0.08,-0.065c2.084,-4.059 3.621,-8.377 4.574,-12.863l0.731,0.138l-0.006,0.069c0.465,0.017 0.836,0.394 0.836,0.863c0,0.469 -0.371,0.846 -0.836,0.863c0.016,0.221 0.033,0.442 0.058,0.661c0.459,-0.065 0.891,0.244 0.973,0.705c0.082,0.46 -0.219,0.898 -0.674,0.994c0.053,0.216 0.11,0.429 0.172,0.643c0.442,-0.145 0.922,0.083 1.082,0.523c0.158,0.439 -0.06,0.922 -0.49,1.095c0.088,0.204 0.182,0.405 0.281,0.602c0.41,-0.217 0.92,-0.074 1.155,0.33c0.232,0.404 0.101,0.916 -0.291,1.164c0.123,0.184 0.25,0.365 0.382,0.543c0.366,-0.283 0.891,-0.232 1.19,0.125c0.301,0.358 0.26,0.883 -0.08,1.193c0.152,0.161 0.31,0.317 0.47,0.469c0.311,-0.34 0.836,-0.379 1.192,-0.08c0.357,0.301 0.41,0.826 0.127,1.192c0.177,0.13 0.359,0.257 0.543,0.38c0.246,-0.39 0.758,-0.523 1.162,-0.289c0.404,0.233 0.547,0.745 0.33,1.155c0.119,0.058 0.238,0.111 0.359,0.166c-0.125,0.017 -0.24,0.057 -0.343,0.117l-1.397,-0.031Zm-19.088,-90.737l18.024,59.422c-0.241,0.074 -0.391,0.121 -0.391,0.121c0,0 -0.76,0.393 -0.506,1.141c0.254,0.748 0.986,0.685 0.986,0.685l0.077,-0.017c0.185,0.467 0.435,0.834 0.683,0.867l0.262,0.864c-0.16,0.109 -0.328,0.226 -0.502,0.355l-0.965,-0.037c-0.139,-0.09 -0.301,-0.149 -0.478,-0.157c-0.188,-0.005 -0.364,0.043 -0.512,0.131l-1.387,-0.052c-0.138,-0.09 -0.303,-0.149 -0.48,-0.157c-0.178,-0.006 -0.344,0.039 -0.491,0.121l-1.093,-0.043c-0.709,-12.836 -6.045,-24.804 -15.207,-33.968c-2.942,-2.942 -6.174,-5.485 -9.629,-7.612l11.609,-21.664Zm-20.336,-28.59c1.201,0.871 2.537,1.774 3.811,2.549c-1.633,-0.801 -2.961,-1.519 -3.348,-1.906c-0.18,-0.18 -0.33,-0.404 -0.463,-0.643Zm35.936,0.198c-0.311,0.052 -0.824,0.136 -1.492,0.246c-1.913,0.312 -4.92,0.804 -7.989,1.326c4.063,-1.004 7.936,-1.615 9.438,-1.77c0.246,-0.025 0.471,-0.046 0.693,-0.068c-0.178,0.127 -0.39,0.223 -0.65,0.266Zm78.833,46.904c0.002,0.005 2.517,6.506 2.697,6.434c0.945,-0.376 3.825,-0.118 4.047,-1.541c0.027,-0.176 -1.757,-6.977 -1.758,-6.979c-0.517,-1.658 -0.867,-2.781 -0.957,-3.057c-0.283,-0.88 -0.867,-1.978 -1.264,-2.671c0.391,-0.17 0.598,-0.622 0.465,-1.053c-0.142,-0.463 -0.615,-0.727 -1.058,-0.594l-6.309,-20.4l-0.264,0.082l-0.033,-0.114l0.258,-0.08c0.445,-0.136 0.689,-0.625 0.547,-1.088c-0.143,-0.464 -0.621,-0.73 -1.067,-0.591l-0.226,0.07c-0.975,-3.439 -1.891,-7.055 -1.535,-7.41c0.461,-0.461 2.635,-0.528 6.121,-0.52c0.482,1.028 1.51,1.741 2.721,1.741c0.902,0 1.75,-0.399 2.339,-1.028c1.498,-0.064 3.653,-0.158 5.514,-0.238c1.43,-0.059 3.568,-0.084 3.777,-0.088c0.422,-0.006 1.149,0.055 1.95,0.207l-0.045,-0.084l0.211,0.041l0.054,0.098c0.797,0.164 1.534,0.299 2.239,0.711c0.16,0.091 0.298,0.285 0.453,0.386l0.105,-0.054l0.129,0.088l-0.096,0.05c1.202,0.825 2.153,1.819 2.664,3.174l0.116,0.037l0.062,0.164l-0.123,-0.037c0.201,0.586 0.35,1.225 0.358,1.908c0.019,1.323 -0.213,2.385 -0.643,3.393l0.102,0.072l-0.053,0.129l-0.127,-0.095c-0.744,1.664 -1.942,2.937 -3.414,3.935l0.033,0.137l-0.141,0.094l-0.029,-0.12c-1.764,1.168 -3.826,1.959 -5.609,2.6c-0.258,0.092 -0.53,0.191 -0.811,0.289l0.07,0.109l-0.072,0.026l-0.056,-0.098c-1.383,0.477 -3.057,1.016 -4.518,1.473l0,0.109l-0.08,0.026l0,-0.127c-2.244,0.699 -4.127,1.291 -4.16,1.301l0.035,0.121c-0.238,0.144 -0.363,0.417 -0.277,0.677l0.718,2.158c0.075,0.221 0.276,0.362 0.502,0.385l0.032,0.102c0.115,-0.035 1.416,-0.389 3.15,-0.922l0,-0.092l0.141,-0.043l0.001,0.074c1.959,-0.603 4.415,-1.367 6.311,-2.041l-0.043,-0.072l0.217,-0.076l0.025,0.039l0.246,-0.125c1.393,-0.5 3.239,-1.117 5.084,-2.184l-0.017,-0.074l0.164,-0.096l0.031,0.129c0.809,-0.476 1.611,-1.085 2.262,-1.683c1.234,-1.137 2.365,-2.364 3.234,-3.772l-0.084,-0.062l0.102,-0.17l0.092,0.068c0.679,-1.129 1.294,-2.385 1.609,-3.74c0.49,-0.463 1.187,-0.766 1.187,-0.766l-0.003,-0.002c0.853,-0.263 1.666,-0.642 2.035,-1.136c2.179,0.396 2.709,2.584 2.254,4.682c-0.477,2.2 -2.289,5.134 -3.045,6.968c-0.756,1.832 0.189,2.907 0.338,2.811c0.148,-0.096 0.265,-1.938 0.835,-3.147c0.569,-1.207 2.666,-4.156 3.211,-6.906c0.473,-2.389 0.133,-6.283 0.036,-7.264c0.103,-0.045 0.164,-0.07 0.164,-0.07c0,0 0.605,-3.275 -1.953,-2.047c-1.323,0.633 -3.25,0.449 -4.807,0.125c-0.686,-0.397 -2.301,-1.131 -2.889,-1.395c-0.275,-0.294 -0.56,-0.574 -0.853,-0.822l-0.123,0.065l-0.121,-0.1l0.121,-0.06c-0.789,-0.649 -1.674,-1.09 -2.354,-1.475c-2.318,-1.308 -5.078,-1.631 -6.045,-1.617l-0.062,0.072l0.019,0.033l-0.129,0l-0.049,-0.092c-0.447,-0.002 -1.419,-0.064 -2.609,-0.082l-0.043,0.141c-2.021,-0.029 -4.66,-0.07 -6.443,-0.098c-0.492,-0.566 -1.19,-0.953 -1.975,-1.037l-1.236,-0.017l-7.928,0c-2.152,0 -4.016,0.039 -4.875,1.365c-0.984,1.525 -0.219,3.766 0.016,4.395l2.203,7.736l-0.328,0.101c-0.446,0.139 -0.692,0.625 -0.547,1.09c0.142,0.463 0.619,0.729 1.064,0.592l0.293,-0.092l0.032,0.115l-0.372,0.116l0.143,0.463c-3.164,0 -82.259,0 -83.091,0c-0.095,0 -0.199,0.008 -0.306,0.025l-0.77,-2.541l-0.158,0.047l-3.625,-12.215c0.451,-0.158 0.91,-0.326 1.389,-0.524c0.179,-0.074 0.361,-0.146 0.544,-0.218c4.592,-0.852 11.473,-1.979 14.543,-2.483c0.67,-0.109 1.184,-0.193 1.495,-0.244c0.834,-0.141 1.367,-0.611 1.695,-1.211c1.15,-0.152 1.754,-0.381 1.754,-1.119c-0.164,-2.803 -2.199,-4.039 -4.451,-4.039c-2.254,0 -10.799,-0.084 -17.313,0.164c-6.512,0.248 -19.783,-0.906 -20.937,-0.906c-1.155,0 -0.825,1.998 -0.825,2.637c0,0.267 1.143,1.293 2.752,2.527c0.219,0.777 0.571,1.598 1.133,2.162c0.899,0.896 5.473,3.006 8.486,4.34c0.536,0.879 1.5,1.469 2.606,1.469c1.146,0 2.143,-0.635 2.664,-1.571l0.113,-0.006l3.717,12.53l-0.316,0.095l0.189,0.623c-0.135,-0.046 -0.275,-0.076 -0.426,-0.076c-0.716,0 -1.298,0.582 -1.298,1.297c0,0.717 0.582,1.299 1.298,1.299c0.422,0 0.795,-0.207 1.034,-0.52l1.38,4.557c0,0 -5.752,10.832 -12.638,23.799c-7.641,-4.234 -16.272,-6.488 -25.248,-6.488c-8.701,0 -17.078,2.114 -24.542,6.099c-4.5,2.402 -8.668,5.484 -12.376,9.192c-9.86,9.861 -15.291,22.972 -15.291,36.918c0,13.945 5.431,27.054 15.291,36.916c9.861,9.861 22.972,15.291 36.918,15.291c13.945,0 27.054,-5.43 36.916,-15.291c3.455,-3.455 6.363,-7.311 8.687,-11.459c0.088,0.035 0.182,0.06 0.283,0.068c0.135,0.008 0.266,-0.014 0.387,-0.059l0.067,0.01l1.445,0.09c0.131,0.086 0.285,0.145 0.455,0.156c0.178,0.01 0.346,-0.031 0.492,-0.109l1.397,0.088c0.136,0.094 0.296,0.156 0.474,0.168c0.188,0.012 0.363,-0.035 0.516,-0.119l1.31,0.082c0.133,0.086 0.286,0.144 0.455,0.154c0.178,0.012 0.346,-0.031 0.495,-0.107l1.394,0.085c0.137,0.096 0.299,0.159 0.477,0.168c0.164,0.012 0.32,-0.025 0.461,-0.091l1.248,0.076c0.144,0.097 0.314,0.156 0.5,0.16c0.179,0.004 0.345,-0.045 0.49,-0.127l1.396,0.031c0.141,0.088 0.303,0.145 0.483,0.149c0.156,0.004 0.304,-0.035 0.437,-0.102l1.946,0.092l0.132,-0.006c0.145,0.113 0.323,0.188 0.522,0.2c0.178,0.011 0.346,-0.03 0.492,-0.106l1.58,0.103c0.18,0.135 0.406,0.207 0.647,0.186c0.177,-0.018 0.336,-0.084 0.47,-0.183l1.391,-0.129c0.15,0.072 0.318,0.109 0.496,0.093c0.227,-0.021 0.424,-0.123 0.572,-0.271l1.401,-0.383c0.16,0.047 0.332,0.053 0.504,0.006c0.218,-0.059 0.394,-0.194 0.515,-0.366l1.313,-0.619l0.26,-0.011c0.144,-0.02 0.285,-0.07 0.41,-0.159c0.146,-0.103 0.25,-0.242 0.316,-0.392l1.141,-0.809c0.166,-0.012 0.332,-0.064 0.476,-0.168c0.186,-0.131 0.305,-0.316 0.36,-0.519l1.021,-1.031l0.235,-0.096c0.13,-0.069 0.248,-0.164 0.337,-0.293c0.102,-0.147 0.153,-0.313 0.163,-0.478l0.796,-1.149c0.151,-0.068 0.288,-0.174 0.389,-0.32c0.129,-0.186 0.178,-0.403 0.16,-0.612l0.608,-1.318l0.191,-0.174c0.096,-0.107 0.173,-0.236 0.214,-0.387c0.045,-0.173 0.035,-0.345 -0.012,-0.504l0.356,-1.351c0.119,-0.117 0.211,-0.264 0.257,-0.435c0.057,-0.219 0.03,-0.44 -0.058,-0.632l0.023,-0.291l6.371,-0.234l-1.552,1.404c0,0 -0.155,0.203 0.006,0.364c0.16,0.16 1.683,1.681 1.873,1.871c0.189,0.189 0.361,-0.022 0.361,-0.022l2.697,-2.924c0.252,0.051 0.514,0.086 0.791,0.086c1.442,0 1.979,-0.884 1.979,-1.978l0,-0.797l-0.008,-0.101l3.314,-3.059c0,0 0.213,-0.174 0.024,-0.364c-0.19,-0.189 -1.713,-1.712 -1.873,-1.873c-0.16,-0.16 -0.362,-0.003 -0.362,-0.003l-3.101,3.424c-1.354,0.011 -2.817,0.81 -2.817,0.81l-7.73,-0.279l-0.002,-0.006c0.074,-0.15 0.111,-0.319 0.094,-0.496c-0.022,-0.225 -0.123,-0.422 -0.27,-0.573l-0.383,-1.4l0.036,-0.252c0.003,-0.146 -0.02,-0.295 -0.086,-0.435c-0.077,-0.163 -0.195,-0.29 -0.333,-0.381l-0.598,-1.264c0.018,-0.166 -0.006,-0.336 -0.082,-0.498c-0.098,-0.205 -0.26,-0.355 -0.449,-0.445l-0.84,-1.184l-0.051,-0.242l-0.008,-0.024l1.59,-1.8l52.169,-57.127l0.127,0.41c-0.393,0.17 -0.602,0.621 -0.469,1.057c0.145,0.462 0.621,0.728 1.067,0.589l0.002,0c0.142,0.774 0.398,2.036 0.72,3.073c0.104,0.33 0.559,1.537 1.233,3.275Z" style="fill:#3c3c3b;fill-rule:nonzero;"/></svg>