<?xml version="1.0" encoding="UTF-8" standalone="no"?><!DOCTYPE svg PUBLIC "-//W3C//DTD SVG 1.1//EN" "http://www.w3.org/Graphics/SVG/1.1/DTD/svg11.dtd"><svg width="100%" height="100%" viewBox="0 0 573 118" version="1.1" xmlns="http://www.w3.org/2000/svg" xmlns:xlink="http://www.w3.org/1999/xlink" xml:space="preserve" xmlns:serif="http://www.serif.com/" style="fill-rule:evenodd;clip-rule:evenodd;stroke-linejoin:round;stroke-miterlimit:1.41421;"><path d="M151.55,48.598c-0.632,1.096 -0.631,2.446 0.003,3.542c0.633,1.096 1.802,1.771 3.068,1.771l40.237,0c3.073,0 5.913,1.639 7.451,4.299c1.538,2.661 1.541,5.94 0.006,8.603l-10.065,17.473l-92.646,0l5.541,-9.618l61.257,0l3.064,-5.319c0.632,-1.097 0.631,-2.447 -0.002,-3.542c-0.633,-1.096 -1.803,-1.771 -3.068,-1.771l-40.237,0c-3.074,0 -5.913,-1.639 -7.452,-4.3c-1.538,-2.66 -1.54,-5.939 -0.006,-8.602l4.661,-8.092c3.344,-5.805 9.533,-9.382 16.232,-9.382l79.287,0l-5.541,9.619l-58.726,0l-3.064,5.319Z" style="fill-rule:nonzero;"/><path d="M239.987,68.976c-0.676,1.174 -0.675,2.621 0.003,3.795c0.678,1.173 1.931,1.897 3.287,1.897l33.713,0l-5.541,9.618l-56.78,0c-3.073,0 -5.914,-1.638 -7.451,-4.299c-1.539,-2.661 -1.541,-5.94 -0.007,-8.603l16.327,-28.342c3.343,-5.805 9.532,-9.382 16.231,-9.382l60.842,0l-5.541,9.619l-37.355,0c-1.81,0 -3.483,0.967 -4.386,2.536l-13.342,23.161Z" style="fill-rule:nonzero;"/><path d="M395.292,37.96c1.538,2.661 1.54,5.939 0.006,8.603l-16.326,28.341c-3.344,5.805 -9.533,9.382 -16.232,9.382l-66.929,0c-3.074,0 -5.914,-1.638 -7.452,-4.299c-1.537,-2.661 -1.54,-5.94 -0.005,-8.603l16.326,-28.342c3.343,-5.805 9.532,-9.382 16.231,-9.382l66.929,0c3.073,0 5.914,1.639 7.452,4.3m-74.381,31.394c-0.632,1.097 -0.631,2.448 0.002,3.543c0.634,1.096 1.803,1.771 3.068,1.771l20.813,0c1.81,0 3.483,-0.967 4.387,-2.536l13.34,-23.161c0.678,-1.174 0.676,-2.621 -0.001,-3.795c-0.679,-1.174 -1.932,-1.897 -3.289,-1.897l-20.374,0c-1.81,0 -3.483,0.967 -4.386,2.536l-13.56,23.539Z" style="fill-rule:nonzero;"/><path d="M483.722,43.279l-22.797,0l-23.622,41.007l-31.389,0l23.622,-41.007l-28.044,0l5.541,-9.619l82.23,0l-5.541,9.619Z" style="fill-rule:nonzero;"/><path d="M520.541,84.286l-31.389,0l23.622,-41.007l-21.459,0l5.541,-9.619l75.644,0l-5.541,9.619l-22.797,0l-23.621,41.007Z" style="fill-rule:nonzero;"/><path d="M83.526,56.166c4.505,7.821 4.505,17.449 0,25.271l-16.377,28.43c-2.711,4.706 -7.729,7.607 -13.16,7.607l-44.38,0l12.938,-22.459l23.455,0c2.716,0 5.225,-1.451 6.58,-3.804l7.973,-13.84c1.802,-3.129 1.802,-6.98 0,-10.108l-8.1,-14.061c-1.802,-3.129 -1.802,-6.98 0,-10.108l11.771,-20.433l19.3,33.505Z" style="fill-rule:nonzero;"/><path d="M64.226,22.661l-22.19,0c-2.716,0 -5.224,1.45 -6.58,3.803l-10.061,17.466c-0.901,1.564 -0.901,3.49 0,5.054l8.922,15.49c1.802,3.128 1.802,6.979 0,10.108l-11.77,20.433l-18.668,-32.408c-4.505,-7.82 -4.505,-17.448 0,-25.27l18.283,-31.739c1.808,-3.138 5.153,-5.072 8.774,-5.072l46.04,0l-12.75,22.135Z" style="fill-rule:nonzero;"/></svg>